<svg xmlns="http://www.w3.org/2000/svg" viewBox="0 0 3840 2160" width="3840" height="2160">
  <defs>
    <linearGradient id="bg-grad" x1="0%" y1="0%" x2="100%" y2="100%">
      <stop offset="0%" stop-color="#071521" />
      <stop offset="100%" stop-color="#020A12" />
    </linearGradient>

    <linearGradient id="aws-accent" x1="0%" y1="100%" x2="100%" y2="0%">
      <stop offset="0%" stop-color="#FF9900" />
      <stop offset="100%" stop-color="#38BDF8" />
    </linearGradient>

    <filter id="subtle-glow" x="-20%" y="-20%" width="140%" height="140%">
      <feDropShadow dx="0" dy="15" stdDeviation="25" flood-color="#000000" flood-opacity="0.6" />
    </filter>
  </defs>

  <rect width="3840" height="2160" fill="url(#bg-grad)" />

  <g opacity="0.2">
    <line x1="0" y1="2160" x2="1200" y2="960" stroke="#FF9900" stroke-width="2" stroke-dasharray="12 12" />
    <line x1="0" y1="2000" x2="1040" y2="960" stroke="#38BDF8" stroke-width="1.5" />
  </g>

  <g filter="url(#subtle-glow)">
    <path d="
      M 2800 0
      A 200 200 0 0 0 3000 280
      A 280 280 0 0 0 3450 340
      A 220 220 0 0 0 3840 220
      L 3840 0 Z"
      fill="#0E1C28" opacity="0.85" />

    <path d="
      M 2950 0
      A 150 150 0 0 0 3100 220
      A 220 220 0 0 0 3500 260
      A 170 170 0 0 0 3840 160
      L 3840 0 Z"
      fill="#040D15" />

    <path d="
      M 2950 0
      A 150 150 0 0 0 3100 220
      A 220 220 0 0 0 3500 260
      A 170 170 0 0 0 3840 160"
      fill="none" stroke="url(#aws-accent)" stroke-width="6" stroke-linecap="round" />

    <path d="
      M 3120 0
      A 120 120 0 0 0 3240 160
      A 160 160 0 0 0 3560 190"
      fill="none" stroke="#38BDF8" stroke-width="3" stroke-linecap="round" opacity="0.7" />
  </g>

  <g transform="translate(3680, 1960)">
    <text x="0" y="0"
          text-anchor="end"
          fill="#E0E6ED"
          font-family="Fira Code, JetBrains Mono, monospace, sans-serif"
          font-size="42"
          font-weight="600"
          letter-spacing="12"
          opacity="0.85">polyomino</text>

    <circle cx="-290" cy="-12" r="4" fill="#FF9900" />

    <text x="0" y="36"
          text-anchor="end"
          fill="#94A3B8"
          font-family="Fira Code, JetBrains Mono, monospace, sans-serif"
          font-size="16"
          letter-spacing="6"
          opacity="0.5">SWAY // AWS THEME</text>
  </g>
</svg>
