<svg xmlns="http://www.w3.org/2000/svg" viewBox="0 0 3840 2160" width="100%" height="100%">
  <!-- Abyssal Navy Canvas -->
  <rect width="3840" height="2160" fill="#0A0E17"/>

  <!-- Bathymetric / Latitude Background Grids -->
  <g stroke="#162238" stroke-width="1.5" fill="none">
    <circle cx="1920" cy="1080" r="850"/>
    <circle cx="1920" cy="1080" r="620"/>
    <circle cx="1920" cy="1080" r="400"/>
    <line x1="0" y1="1080" x2="3840" y2="1080" stroke-dasharray="12,12"/>
    <line x1="1920" y1="0" x2="1920" y2="2160" stroke-dasharray="12,12"/>
  </g>

  <!-- Nautical Astrolabe & Rhumb Lines -->
  <g transform="translate(1920, 1080)" fill="none" stroke-linecap="round">
    <!-- Outer Navigation Ring -->
    <circle r="280" stroke="#223354" stroke-width="2"/>
    <circle r="260" stroke="#223354" stroke-width="1" stroke-dasharray="4,8"/>

    <!-- Diagonal Bearing Rays (Muted Navy) -->
    <line x1="-380" y1="-380" x2="380" y2="380" stroke="#1B2A4A" stroke-width="2"/>
    <line x1="-380" y1="380" x2="380" y2="-380" stroke="#1B2A4A" stroke-width="2"/>

    <!-- Portuguese Caravela Cross / Compass Star (Deep Ocean #0984E3) -->
    <path d="M 0,-180 L 25,-40 L 180,0 L 25,40 L 0,180 L -25,40 L -180,0 L -25,-40 Z" 
          stroke="#0984E3" stroke-width="2.5" fill="#0E1B30" fill-opacity="0.6"/>

    <!-- Transatlantic Route Vector (Maré Teal #00CEC9) -->
    <!-- Represents the South-West to North-East heading (BSB -> LIS) -->
    <path d="M -220,120 Q -60,40 180,-140" stroke="#00CEC9" stroke-width="3" stroke-linecap="round"/>
    <circle cx="-220" cy="120" r="4" fill="#00CEC9"/>
    <circle cx="180" cy="-140" r="5" fill="#00CEC9"/>

    <!-- Astrolabe Center Pivot -->
    <circle r="12" fill="#0A0E17" stroke="#0984E3" stroke-width="2"/>
    <circle r="4" fill="#00CEC9"/>
  </g>
</svg>

